<svg width="24" height="24" xmlns="http://www.w3.org/2000/svg" preserveAspectRatio="xMinYMid meet">
 <defs>
  <linearGradient y1="0" y2="1.000211" x2="0.500045" x1="0.500045" id="d">
   <stop stop-color="#C3C3C3" offset="0"/>
   <stop stop-color="#ACACAC" offset="1"/>
  </linearGradient>
  <linearGradient y2="1.002446" x2="0.50005" y1="0.000463" x1="0.50005" id="e">
   <stop stop-color="#E9E9E9" offset="0"/>
   <stop stop-color="#C4C4C4" offset="1"/>
  </linearGradient>
  <linearGradient y2="1.002728" x2="0.500056" y1="-0.000259" x1="0.500056" id="f">
   <stop stop-color="#F7F7F7" offset="0"/>
   <stop stop-color="#FCFCFC" offset="0.104"/>
   <stop stop-color="#FFF" offset="0.329"/>
   <stop stop-color="#E8E8E8" offset="0.569"/>
   <stop stop-color="#D7D7D7" offset="0.815"/>
   <stop stop-color="#D1D1D1" offset="1"/>
  </linearGradient>
  <linearGradient y2="1.000118" x2="0.501" y1="0.000118" x1="0.501" id="k">
   <stop stop-color="#F6A55E" offset="0"/>
   <stop stop-color="#EA5B03" offset="1"/>
  </linearGradient>
  <linearGradient y2="1" x2="0.500091" y1="0.000222" x1="0.500091" id="svg_15">
   <stop stop-opacity="0.996094" stop-color="#76a1f0" offset="0"/>
   <stop stop-opacity="0.996094" stop-color="#6b90d5" offset="1"/>
  </linearGradient>
  <linearGradient y2="1" x2="0.5001" y1="0.000286" x1="0.5001" id="svg_16">
   <stop stop-opacity="0.996094" stop-color="#bbe0f7" offset="0"/>
   <stop stop-opacity="0.996094" stop-color="#82b4fb" offset="1"/>
  </linearGradient>
  <linearGradient y2="0.990631" x2="0.504317" y1="0" x1="0.504317" id="svg_18">
   <stop stop-opacity="0.996094" stop-color="#76a1f0" offset="0"/>
   <stop stop-opacity="0.996094" stop-color="#6b90d5" offset="1"/>
  </linearGradient>
  <linearGradient y2="0.999415" x2="0.505372" y1="0" x1="0.505372" id="svg_19">
   <stop stop-opacity="0.996094" stop-color="#8bb4f0" offset="0"/>
   <stop stop-opacity="0.996094" stop-color="#7ca4eb" offset="1"/>
  </linearGradient>
  <linearGradient y2="0.998276" x2="0.506443" y1="0.000048" x1="0.506443" id="svg_20">
   <stop stop-opacity="0.996094" stop-color="#bbe0f7" offset="0"/>
   <stop stop-opacity="0.996094" stop-color="#82b4fb" offset="1"/>
  </linearGradient>
  <linearGradient y2="1" x2="0.500111" y1="0.0004" x1="0.500111" id="svg_21">
   <stop stop-opacity="0.996094" stop-color="#bbe0f7" offset="0.22"/>
   <stop stop-opacity="0.992188" stop-color="#82b4fb" offset="0.507813"/>
   <stop stop-opacity="0.996094" stop-color="#82b4fb" offset="1"/>
  </linearGradient>
  <linearGradient y2="1" x2="0.5005" y1="0.000053" x1="0.5005" id="svg_22">
   <stop stop-opacity="0.996094" stop-color="#76a1f0" offset="0"/>
   <stop stop-opacity="0.996094" stop-color="#6b90d5" offset="1"/>
  </linearGradient>
  <linearGradient y2="1" x2="0.501" y1="0.000118" x1="0.501" id="svg_25">
   <stop stop-opacity="0.992188" stop-color="#8bb4f0" offset="0"/>
   <stop stop-opacity="0.988281" stop-color="#95baf1" offset="0.09"/>
   <stop stop-opacity="0.988281" stop-color="#9ec1f3" offset="0.183"/>
   <stop stop-opacity="0.996094" stop-color="#bbe0f7" offset="0.238"/>
   <stop stop-opacity="0.988281" stop-color="#bbe0f7" offset="0.246"/>
   <stop stop-opacity="0.988281" stop-color="#bbe0f7" offset="0.381"/>
   <stop stop-opacity="0.988281" stop-color="#a8c7f4" offset="0.515"/>
   <stop stop-opacity="0.988281" stop-color="#9ec1f3" offset="0.649"/>
   <stop stop-opacity="0.988281" stop-color="#95baf1" offset="0.78"/>
   <stop stop-opacity="0.980469" stop-color="#6b90d5" offset="1"/>
  </linearGradient>
 </defs>
 <g>
  <title>background</title>
  <rect fill="none" id="canvas_background" height="402" width="582" y="-1" x="-1"/>
 </g>
 <g>
  <title>Layer 1</title>
  <path id="svg_1" fill="url(#svg_18)" d="m10.9,19.1c-1.099999,-0.800001 -1.7,-1.1 -2,-2.4c-0.2,-1.1 -1.3,-6.400001 -1.3,-6.400001l-4.9,1s0.9,4.599999 1.8,8.999999s1,4.300001 6.8,3.1c2.4,-0.6 1.5,-2.9 -0.400001,-4.299999z"/>
  <path id="svg_2" fill="url(#svg_20)" d="m7,23c-0.8,0 -0.9,0 -1.5,-3l-1.6,-8l2.9,-0.6l1.2,5.5c0.3,1.6 1,2.1 1.9,2.700001l0.400001,0.299999c1.099999,0.800001 1.5,1.700001 1.4,2.1c0,0.200001 -0.5,0.299999 -0.599999,0.299999l-0.5,0.1c-1.6,0.300001 -2.8,0.6 -3.6,0.6z"/>
  <path id="svg_3" fill="url(#svg_19)" d="m7.7,21.9c-0.7,0 -0.7,0 -1.2,-2.1l-1.4,-6.999999l1,-0.2l0.9,4.5c0.4,1.9 1.4,2.699999 2.3,3.299999l0.4,0.300001c1.1,0.9 0.900001,0.699999 -2,1.199999z"/>
  <path id="svg_4" fill="url(#d)" d="m12.5,5l-7.9,0c-2.5,0 -4.6,2.2 -4.6,4.5s2.1,4.5 4.6,4.5l7.6,0s5.7,0 9.8,5l0,-9.5l0,-9.5c-3.299999,4.8 -9.5,5 -9.5,5z"/>
  <path id="svg_5" fill="url(#e)" d="m21,16.5c-4,-3.5 -8.5,-3.5 -8.8,-3.5l-7.6,0c-1.9,0 -3.6,-1.6 -3.6,-3.5s1.7,-3.5 3.6,-3.5l7.8,0c0.3,0 4.9,-0.2 8.5,-3.4l0,13.9l0.1,0z"/>
  <path id="svg_6" fill="url(#f)" d="m20,14.5c-3.799999,-2.5 -7.6,-2.5 -7.8,-2.5l-7.6,0c-1.3,0 -2.6,-1.2 -2.6,-2.5s1.3,-2.5 2.6,-2.5l7.8,0c0.200001,0 4,-0.2 7.5,-2.4l0,9.9l0.1,0z"/>
  <path id="svg_7" fill="url(#svg_15)" d="m11,5l-6.4,0c-2.5,0 -4.6,2.2 -4.6,4.5s2.1,4.5 4.6,4.5l6.4,0l0,-9z"/>
  <path id="svg_8" fill="url(#svg_16)" d="m11,6l-6.4,0c-1.9,0 -3.6,1.6 -3.6,3.5s1.7,3.5 3.6,3.5l6.4,0l0,-7z"/>
  <path id="svg_9" fill="url(#svg_21)" d="m11,7l-6.4,0c-1.3,0 -2.6,1.2 -2.6,2.5s1.3,2.5 2.6,2.5l6.4,0l0,-5z"/>
  <path id="svg_10" fill="url(#svg_22)" d="m20,17c0,1.1 0.9,2 2,2s2,-0.9 2,-2l0,-15c0,-1.1 -0.9,-2 -2,-2s-2,0.9 -2,2l0,15z"/>
  <path id="svg_11" fill="url(#k)" d="m22,18c-0.6,0 -1,-0.4 -1,-1l0,-15c0,-0.6 0.4,-1 1,-1s1,0.4 1,1l0,15c0,0.6 -0.4,1 -1,1z"/>
  <path id="svg_12" fill="url(#svg_25)" d="m22,18c-0.6,0 -1,-0.4 -1,-1l0,-15c0,-0.6 0.4,-1 1,-1s1,0.4 1,1l0,15c0,0.6 -0.4,1 -1,1z"/>
 </g>
</svg>